# xmcd
#
# Track frame offsets: 
#        150
#        13788
#        34804
#        54743
#        75332
#        91099
#        104351
#        121537
#        142399
#        160682
#        177216
#
# Disc length: 2533 seconds
#
# Revision: 2
# Processed by: cddbd v1.5.2PL0 Copyright (c) Steve Scherf et al.
# Submitted via: ExactAudioCopy v0.95a4
#
DISCID=8209e30b
DTITLE=Debbie Davies - After the Fall
DYEAR=2012
DGENRE=Blues
TTITLE0=Don't Put The Blame
TTITLE1=The Fall
TTITLE2=True Blue Fool
TTITLE3=Done Sold Everything
TTITLE4=Little Broken Wing
TTITLE5=All Of My Forgiveness
TTITLE6=Goin' To A Gaggle
TTITLE7=I'll Feel Much Better When You Cry
TTITLE8=Down Home Girl
TTITLE9=R.R. Boogie
TTITLE10=Google Me Baby
EXTD=Year: 2012\n\n\n\n\n\n                                           
EXTD=      http://debbiedavis.com
EXTT0=
EXTT1=
EXTT2=
EXTT3=
EXTT4=
EXTT5=
EXTT6=
EXTT7=
EXTT8=
EXTT9=
EXTT10=
PLAYORDER=
